# MagicaVoxel @ Ephtracy

# material
mtllib Gull.mtl
usemtl palette

# normals
vn -1 0 0
vn 1 0 0
vn 0 0 1
vn 0 0 -1
vn 0 -1 0
vn 0 1 0

# texcoords
vt 0.0644531 0.5
vt 0.306641 0.5
vt 0.958984 0.5
vt 0.966797 0.5
vt 0.970703 0.5
vt 0.978516 0.5
vt 0.990234 0.5

# verts
v -8 5 -0
v -8 5 -1
v -8 6 -0
v -8 6 -1
v -6 5 1
v -6 5 -0
v -6 5 -1
v -6 5 -2
v -6 6 1
v -6 6 -0
v -6 6 -1
v -6 6 -2
v -5 4 -0
v -5 4 -1
v -5 5 -0
v -5 5 -1
v -3 4 1
v -3 4 -0
v -3 4 -1
v -3 4 -2
v -3 5 1
v -3 5 -0
v -3 5 -1
v -3 5 -2
v -2 5 2
v -2 5 1
v -2 5 -2
v -2 5 -3
v -2 6 2
v -2 6 1
v -2 6 -2
v -2 6 -3
v -2 7 1
v -2 7 -2
v -1 6 2
v -1 6 1
v -1 6 -2
v -1 6 -3
v -1 7 2
v -1 7 1
v -1 7 -2
v -1 7 -3
v -1 8 1
v -1 8 -2
v 0 7 2
v 0 7 1
v 0 7 -2
v 0 7 -3
v 0 8 2
v 0 8 1
v 0 8 -2
v 0 8 -3
v 0 9 1
v 0 9 -2
v 1 8 2
v 1 8 1
v 1 8 -2
v 1 8 -3
v 1 9 2
v 1 9 1
v 1 9 -2
v 1 9 -3
v 2 0 1
v 2 0 -0
v 2 0 -1
v 2 0 -2
v 2 3 1
v 2 3 -0
v 2 3 -1
v 2 3 -2
v 2 4 1
v 2 4 -0
v 2 4 -1
v 2 4 -2
v 4 9 1
v 4 9 -0
v 4 9 -1
v 4 9 -2
v 4 12 1
v 4 12 -2
v 3 1 1
v 3 1 -0
v 3 1 -1
v 3 1 -2
v 3 3 1
v 3 3 -0
v 3 3 -1
v 3 3 -2
v 3 4 1
v 3 4 -0
v 3 4 -1
v 3 4 -2
v 3 5 2
v 3 5 1
v 3 5 -2
v 3 5 -3
v 3 6 2
v 3 6 1
v 3 6 -2
v 3 6 -3
v 4 4 1
v 4 4 -2
v 4 5 1
v 4 5 -2
v 4 6 2
v 4 6 1
v 4 7 2
v 4 7 1
v 5 0 1
v 5 0 -0
v 5 0 -1
v 5 0 -2
v 5 1 1
v 5 1 -0
v 5 1 -1
v 5 1 -2
v 5 5 1
v 5 5 -2
v 5 6 1
v 5 6 -2
v 5 6 -3
v 5 7 2
v 5 7 1
v 5 9 2
v 5 9 1
v 5 9 -2
v 5 9 -3
v 6 6 1
v 6 6 -2
v 6 10 1
v 6 10 -2
v 7 10 1
v 7 10 -0
v 7 10 -1
v 7 10 -2
v 7 11 -0
v 7 11 -1
v 7 12 1
v 7 12 -2
v 9 10 -0
v 9 10 -1
v 9 11 -0
v 9 11 -1
v -2 5 2
v -2 6 2
v -1 6 2
v -1 7 2
v 0 7 2
v 0 8 2
v 1 8 2
v 1 9 2
v 3 5 2
v 3 6 2
v 4 6 2
v 4 7 2
v 5 7 2
v 5 9 2
v -6 5 1
v -6 6 1
v -3 4 1
v -3 5 1
v -2 5 1
v -2 6 1
v -2 7 1
v -1 6 1
v -1 7 1
v -1 8 1
v 0 7 1
v 0 8 1
v 0 9 1
v 1 8 1
v 1 9 1
v 2 0 1
v 2 3 1
v 2 4 1
v 3 1 1
v 3 3 1
v 3 4 1
v 3 5 1
v 3 6 1
v 4 4 1
v 4 5 1
v 4 6 1
v 4 7 1
v 4 9 1
v 4 12 1
v 5 0 1
v 5 1 1
v 5 5 1
v 5 6 1
v 5 7 1
v 5 9 1
v 6 6 1
v 6 10 1
v 7 10 1
v 7 12 1
v -8 5 -0
v -8 6 -0
v -6 5 -0
v -6 6 -0
v -5 4 -0
v -5 5 -0
v -3 4 -0
v -3 5 -0
v 7 10 -0
v 7 11 -0
v 9 10 -0
v 9 11 -0
v 2 0 -1
v 2 3 -1
v 2 4 -1
v 3 1 -1
v 3 3 -1
v 3 4 -1
v 5 0 -1
v 5 1 -1
v 2 0 -0
v 2 3 -0
v 2 4 -0
v 3 1 -0
v 3 3 -0
v 3 4 -0
v 5 0 -0
v 5 1 -0
v -8 5 -1
v -8 6 -1
v -6 5 -1
v -6 6 -1
v -5 4 -1
v -5 5 -1
v -3 4 -1
v -3 5 -1
v 7 10 -1
v 7 11 -1
v 9 10 -1
v 9 11 -1
v -6 5 -2
v -6 6 -2
v -3 4 -2
v -3 5 -2
v -2 5 -2
v -2 6 -2
v -2 7 -2
v -1 6 -2
v -1 7 -2
v -1 8 -2
v 0 7 -2
v 0 8 -2
v 0 9 -2
v 1 8 -2
v 1 9 -2
v 2 0 -2
v 2 3 -2
v 2 4 -2
v 3 1 -2
v 3 3 -2
v 3 4 -2
v 3 5 -2
v 3 6 -2
v 4 4 -2
v 4 5 -2
v 4 9 -2
v 4 12 -2
v 5 0 -2
v 5 1 -2
v 5 5 -2
v 5 6 -2
v 5 9 -2
v 6 6 -2
v 6 10 -2
v 7 10 -2
v 7 12 -2
v -2 5 -3
v -2 6 -3
v -1 6 -3
v -1 7 -3
v 0 7 -3
v 0 8 -3
v 1 8 -3
v 1 9 -3
v 3 5 -3
v 3 6 -3
v 5 6 -3
v 5 9 -3
v 2 0 1
v 5 0 1
v 2 0 -0
v 5 0 -0
v 2 0 -1
v 5 0 -1
v 2 0 -2
v 5 0 -2
v -3 4 1
v 2 4 1
v 3 4 1
v 4 4 1
v -5 4 -0
v -3 4 -0
v 2 4 -0
v 3 4 -0
v -5 4 -1
v -3 4 -1
v 2 4 -1
v 3 4 -1
v -3 4 -2
v 2 4 -2
v 3 4 -2
v 4 4 -2
v -2 5 2
v 3 5 2
v -6 5 1
v -3 5 1
v -2 5 1
v 3 5 1
v 4 5 1
v 5 5 1
v -8 5 -0
v -6 5 -0
v -5 5 -0
v -3 5 -0
v -8 5 -1
v -6 5 -1
v -5 5 -1
v -3 5 -1
v -6 5 -2
v -3 5 -2
v -2 5 -2
v 3 5 -2
v 4 5 -2
v 5 5 -2
v -2 5 -3
v 3 5 -3
v 3 6 2
v 4 6 2
v 3 6 1
v 4 6 1
v 5 6 1
v 6 6 1
v 3 6 -2
v 5 6 -2
v 6 6 -2
v 3 6 -3
v 5 6 -3
v 4 7 2
v 5 7 2
v 4 7 1
v 5 7 1
v 6 10 1
v 7 10 1
v 7 10 -0
v 9 10 -0
v 7 10 -1
v 9 10 -1
v 6 10 -2
v 7 10 -2
v 3 1 1
v 5 1 1
v 3 1 -0
v 5 1 -0
v 3 1 -1
v 5 1 -1
v 3 1 -2
v 5 1 -2
v -2 6 2
v -1 6 2
v -6 6 1
v -2 6 1
v -1 6 1
v -8 6 -0
v -6 6 -0
v -5 6 -0
v -8 6 -1
v -6 6 -1
v -5 6 -1
v -6 6 -2
v -2 6 -2
v -1 6 -2
v -2 6 -3
v -1 6 -3
v -1 7 2
v 0 7 2
v -2 7 1
v -1 7 1
v 0 7 1
v -2 7 -2
v -1 7 -2
v 0 7 -2
v -1 7 -3
v 0 7 -3
v 0 8 2
v 1 8 2
v -1 8 1
v 0 8 1
v 1 8 1
v -1 8 -2
v 0 8 -2
v 1 8 -2
v 0 8 -3
v 1 8 -3
v 1 9 2
v 5 9 2
v 0 9 1
v 1 9 1
v 4 9 1
v 5 9 1
v 1 9 -0
v 2 9 -0
v 4 9 -0
v 1 9 -1
v 2 9 -1
v 4 9 -1
v 0 9 -2
v 1 9 -2
v 4 9 -2
v 5 9 -2
v 1 9 -3
v 5 9 -3
v 7 11 -0
v 9 11 -0
v 7 11 -1
v 9 11 -1
v 4 12 1
v 7 12 1
v 4 12 -2
v 7 12 -2

# faces
f 3/3/1 2/3/1 1/3/1
f 4/3/1 2/3/1 3/3/1
f 9/7/1 6/7/1 5/7/1
f 10/7/1 6/7/1 9/7/1
f 11/7/1 8/7/1 7/7/1
f 12/7/1 8/7/1 11/7/1
f 15/3/1 14/3/1 13/3/1
f 16/3/1 14/3/1 15/3/1
f 21/3/1 18/3/1 17/3/1
f 22/3/1 18/3/1 21/3/1
f 23/3/1 20/3/1 19/3/1
f 24/3/1 20/3/1 23/3/1
f 29/6/1 26/6/1 25/6/1
f 30/6/1 26/6/1 29/6/1
f 31/6/1 28/6/1 27/6/1
f 32/6/1 28/6/1 31/6/1
f 33/3/1 31/3/1 30/3/1
f 34/3/1 31/3/1 33/3/1
f 39/6/1 36/6/1 35/6/1
f 40/6/1 36/6/1 39/6/1
f 41/6/1 38/6/1 37/6/1
f 42/6/1 38/6/1 41/6/1
f 43/3/1 41/3/1 40/3/1
f 44/3/1 41/3/1 43/3/1
f 49/6/1 46/6/1 45/6/1
f 50/6/1 46/6/1 49/6/1
f 51/6/1 48/6/1 47/6/1
f 52/6/1 48/6/1 51/6/1
f 53/3/1 51/3/1 50/3/1
f 54/3/1 51/3/1 53/3/1
f 59/6/1 56/6/1 55/6/1
f 60/6/1 56/6/1 59/6/1
f 61/6/1 58/6/1 57/6/1
f 62/6/1 58/6/1 61/6/1
f 67/1/1 64/1/1 63/1/1
f 68/1/1 64/1/1 67/1/1
f 69/1/1 66/1/1 65/1/1
f 70/1/1 66/1/1 69/1/1
f 71/3/1 68/3/1 67/3/1
f 72/3/1 68/3/1 71/3/1
f 73/3/1 70/3/1 69/3/1
f 74/3/1 70/3/1 73/3/1
f 79/3/1 76/3/1 75/3/1
f 79/3/1 78/3/1 77/3/1
f 79/3/1 77/3/1 76/3/1
f 80/3/1 78/3/1 79/3/1
f 81/1/2 82/1/2 85/1/2
f 85/1/2 82/1/2 86/1/2
f 83/1/2 84/1/2 87/1/2
f 87/1/2 84/1/2 88/1/2
f 85/3/2 86/3/2 89/3/2
f 89/3/2 86/3/2 90/3/2
f 87/3/2 88/3/2 91/3/2
f 91/3/2 88/3/2 92/3/2
f 93/6/2 94/6/2 97/6/2
f 97/6/2 94/6/2 98/6/2
f 95/6/2 96/6/2 99/6/2
f 99/6/2 96/6/2 100/6/2
f 101/3/2 102/3/2 103/3/2
f 103/3/2 102/3/2 104/3/2
f 105/6/2 106/6/2 107/6/2
f 107/6/2 106/6/2 108/6/2
f 109/1/2 110/1/2 113/1/2
f 113/1/2 110/1/2 114/1/2
f 111/1/2 112/1/2 115/1/2
f 115/1/2 112/1/2 116/1/2
f 117/3/2 118/3/2 119/3/2
f 119/3/2 118/3/2 120/3/2
f 122/6/2 123/6/2 124/6/2
f 124/6/2 123/6/2 125/6/2
f 120/6/2 121/6/2 126/6/2
f 126/6/2 121/6/2 127/6/2
f 128/3/2 129/3/2 130/3/2
f 130/3/2 129/3/2 131/3/2
f 132/3/2 133/3/2 136/3/2
f 134/3/2 135/3/2 137/3/2
f 132/3/2 136/3/2 138/3/2
f 136/3/2 137/3/2 138/3/2
f 137/3/2 135/3/2 139/3/2
f 138/3/2 137/3/2 139/3/2
f 140/1/2 141/1/2 142/1/2
f 142/1/2 141/1/2 143/1/2
f 146/6/3 145/6/3 144/6/3
f 148/6/3 147/6/3 146/6/3
f 150/6/3 149/6/3 148/6/3
f 152/6/3 146/6/3 144/6/3
f 152/6/3 151/6/3 150/6/3
f 152/6/3 150/6/3 148/6/3
f 152/6/3 148/6/3 146/6/3
f 153/6/3 151/6/3 152/6/3
f 154/6/3 151/6/3 153/6/3
f 155/6/3 151/6/3 154/6/3
f 156/6/3 151/6/3 155/6/3
f 157/6/3 151/6/3 156/6/3
f 161/7/3 159/7/3 158/7/3
f 162/7/3 159/7/3 161/7/3
f 162/3/3 161/3/3 160/3/3
f 163/7/3 159/7/3 162/7/3
f 165/3/3 164/3/3 163/3/3
f 166/3/3 164/3/3 165/3/3
f 168/3/3 167/3/3 166/3/3
f 169/3/3 167/3/3 168/3/3
f 171/3/3 170/3/3 169/3/3
f 172/3/3 170/3/3 171/3/3
f 175/3/3 162/3/3 160/3/3
f 176/1/3 174/1/3 173/1/3
f 177/3/3 175/3/3 174/3/3
f 177/1/3 174/1/3 176/1/3
f 178/3/3 162/3/3 175/3/3
f 178/3/3 175/3/3 177/3/3
f 179/3/3 162/3/3 178/3/3
f 181/3/3 180/3/3 179/3/3
f 181/3/3 179/3/3 178/3/3
f 182/3/3 180/3/3 181/3/3
f 183/3/3 180/3/3 182/3/3
f 187/1/3 176/1/3 173/1/3
f 188/1/3 176/1/3 187/1/3
f 189/3/3 184/3/3 183/3/3
f 189/3/3 183/3/3 182/3/3
f 190/3/3 184/3/3 189/3/3
f 191/3/3 184/3/3 190/3/3
f 192/3/3 186/3/3 185/3/3
f 193/3/3 191/3/3 190/3/3
f 193/3/3 192/3/3 191/3/3
f 194/3/3 186/3/3 192/3/3
f 194/3/3 192/3/3 193/3/3
f 195/3/3 186/3/3 194/3/3
f 196/3/3 186/3/3 195/3/3
f 199/3/3 198/3/3 197/3/3
f 200/3/3 198/3/3 199/3/3
f 203/3/3 202/3/3 201/3/3
f 204/3/3 202/3/3 203/3/3
f 207/1/3 206/1/3 205/1/3
f 208/1/3 206/1/3 207/1/3
f 212/1/3 210/1/3 209/1/3
f 213/3/3 211/3/3 210/3/3
f 213/1/3 210/1/3 212/1/3
f 214/3/3 211/3/3 213/3/3
f 215/1/3 212/1/3 209/1/3
f 216/1/3 212/1/3 215/1/3
f 217/1/4 218/1/4 220/1/4
f 218/3/4 219/3/4 221/3/4
f 220/1/4 218/1/4 221/1/4
f 221/3/4 219/3/4 222/3/4
f 217/1/4 220/1/4 223/1/4
f 223/1/4 220/1/4 224/1/4
f 225/3/4 226/3/4 227/3/4
f 227/3/4 226/3/4 228/3/4
f 229/3/4 230/3/4 231/3/4
f 231/3/4 230/3/4 232/3/4
f 233/1/4 234/1/4 235/1/4
f 235/1/4 234/1/4 236/1/4
f 237/7/4 238/7/4 240/7/4
f 240/7/4 238/7/4 241/7/4
f 239/3/4 240/3/4 241/3/4
f 241/7/4 238/7/4 242/7/4
f 242/3/4 243/3/4 244/3/4
f 244/3/4 243/3/4 245/3/4
f 245/3/4 246/3/4 247/3/4
f 247/3/4 246/3/4 248/3/4
f 248/3/4 249/3/4 250/3/4
f 250/3/4 249/3/4 251/3/4
f 239/3/4 241/3/4 254/3/4
f 252/1/4 253/1/4 255/1/4
f 253/3/4 254/3/4 256/3/4
f 255/1/4 253/1/4 256/1/4
f 254/3/4 241/3/4 257/3/4
f 256/3/4 254/3/4 257/3/4
f 257/3/4 241/3/4 258/3/4
f 258/3/4 259/3/4 260/3/4
f 257/3/4 258/3/4 260/3/4
f 260/3/4 259/3/4 261/3/4
f 252/1/4 255/1/4 264/1/4
f 264/1/4 255/1/4 265/1/4
f 261/3/4 259/3/4 266/3/4
f 266/3/4 259/3/4 267/3/4
f 262/3/4 263/3/4 268/3/4
f 267/3/4 268/3/4 269/3/4
f 268/3/4 263/3/4 270/3/4
f 269/3/4 268/3/4 270/3/4
f 270/3/4 263/3/4 271/3/4
f 271/3/4 263/3/4 272/3/4
f 273/6/4 274/6/4 275/6/4
f 275/6/4 276/6/4 277/6/4
f 277/6/4 278/6/4 279/6/4
f 273/6/4 275/6/4 281/6/4
f 279/6/4 280/6/4 281/6/4
f 277/6/4 279/6/4 281/6/4
f 275/6/4 277/6/4 281/6/4
f 281/6/4 280/6/4 282/6/4
f 282/6/4 280/6/4 283/6/4
f 283/6/4 280/6/4 284/6/4
f 287/1/5 286/1/5 285/1/5
f 288/1/5 286/1/5 287/1/5
f 291/1/5 290/1/5 289/1/5
f 292/1/5 290/1/5 291/1/5
f 298/3/5 294/3/5 293/3/5
f 299/3/5 294/3/5 298/3/5
f 300/3/5 296/3/5 295/3/5
f 301/3/5 299/3/5 298/3/5
f 301/3/5 300/3/5 299/3/5
f 301/3/5 298/3/5 297/3/5
f 302/3/5 300/3/5 301/3/5
f 303/3/5 300/3/5 302/3/5
f 304/3/5 296/3/5 300/3/5
f 304/3/5 300/3/5 303/3/5
f 305/3/5 303/3/5 302/3/5
f 306/3/5 303/3/5 305/3/5
f 307/3/5 296/3/5 304/3/5
f 308/3/5 296/3/5 307/3/5
f 313/6/5 310/6/5 309/6/5
f 314/6/5 310/6/5 313/6/5
f 318/7/5 312/7/5 311/7/5
f 319/7/5 312/7/5 318/7/5
f 320/7/5 312/7/5 319/7/5
f 321/3/5 318/3/5 317/3/5
f 321/3/5 319/3/5 318/3/5
f 322/3/5 319/3/5 321/3/5
f 323/3/5 319/3/5 322/3/5
f 325/7/5 324/7/5 323/7/5
f 325/7/5 323/7/5 322/7/5
f 326/7/5 324/7/5 325/7/5
f 329/3/5 316/3/5 315/3/5
f 330/3/5 316/3/5 329/3/5
f 331/6/5 328/6/5 327/6/5
f 332/6/5 328/6/5 331/6/5
f 335/6/5 334/6/5 333/6/5
f 336/6/5 334/6/5 335/6/5
f 340/3/5 338/3/5 337/3/5
f 341/3/5 338/3/5 340/3/5
f 342/6/5 340/6/5 339/6/5
f 343/6/5 340/6/5 342/6/5
f 346/6/5 345/6/5 344/6/5
f 347/6/5 345/6/5 346/6/5
f 350/3/5 349/3/5 348/3/5
f 352/3/5 350/3/5 348/3/5
f 352/1/5 351/1/5 350/1/5
f 353/1/5 351/1/5 352/1/5
f 354/3/5 352/3/5 348/3/5
f 355/3/5 352/3/5 354/3/5
f 356/1/6 357/1/6 358/1/6
f 358/1/6 357/1/6 359/1/6
f 360/1/6 361/1/6 362/1/6
f 362/1/6 361/1/6 363/1/6
f 364/6/6 365/6/6 367/6/6
f 367/6/6 365/6/6 368/6/6
f 366/7/6 367/7/6 370/7/6
f 370/7/6 367/7/6 371/7/6
f 369/3/6 370/3/6 372/3/6
f 370/3/6 371/3/6 372/3/6
f 372/3/6 371/3/6 373/3/6
f 371/7/6 367/7/6 374/7/6
f 373/3/6 371/3/6 374/3/6
f 373/7/6 374/7/6 375/7/6
f 374/7/6 367/7/6 376/7/6
f 375/7/6 374/7/6 376/7/6
f 376/6/6 377/6/6 378/6/6
f 378/6/6 377/6/6 379/6/6
f 380/6/6 381/6/6 383/6/6
f 383/6/6 381/6/6 384/6/6
f 382/3/6 383/3/6 385/3/6
f 385/3/6 383/3/6 386/3/6
f 386/6/6 387/6/6 388/6/6
f 388/6/6 387/6/6 389/6/6
f 390/6/6 391/6/6 393/6/6
f 393/6/6 391/6/6 394/6/6
f 392/3/6 393/3/6 395/3/6
f 395/3/6 393/3/6 396/3/6
f 396/6/6 397/6/6 398/6/6
f 398/6/6 397/6/6 399/6/6
f 400/6/6 401/6/6 403/6/6
f 403/6/6 401/6/6 404/6/6
f 404/6/6 401/6/6 405/6/6
f 402/3/6 403/3/6 406/3/6
f 403/5/6 404/5/6 406/5/6
f 406/5/6 404/5/6 407/5/6
f 407/5/6 404/5/6 408/5/6
f 402/3/6 406/3/6 409/3/6
f 406/3/6 407/3/6 409/3/6
f 407/4/6 408/4/6 410/4/6
f 409/3/6 407/3/6 410/3/6
f 410/4/6 408/4/6 411/4/6
f 402/3/6 409/3/6 412/3/6
f 409/5/6 410/5/6 413/5/6
f 412/3/6 409/3/6 413/3/6
f 410/5/6 411/5/6 413/5/6
f 413/5/6 411/5/6 414/5/6
f 413/6/6 414/6/6 416/6/6
f 414/6/6 415/6/6 416/6/6
f 416/6/6 415/6/6 417/6/6
f 418/1/6 419/1/6 420/1/6
f 420/1/6 419/1/6 421/1/6
f 422/3/6 423/3/6 424/3/6
f 424/3/6 423/3/6 425/3/6
