# MagicaVoxel @ Ephtracy

# material
mtllib Gull@Flying-06.mtl
usemtl palette

# normals
vn -1 0 0
vn 1 0 0
vn 0 0 1
vn 0 0 -1
vn 0 -1 0
vn 0 1 0

# texcoords
vt 0.0644531 0.5
vt 0.306641 0.5
vt 0.958984 0.5
vt 0.966797 0.5
vt 0.970703 0.5
vt 0.978516 0.5
vt 0.990234 0.5

# verts
v -8 5 -0
v -8 5 -1
v -8 6 -0
v -8 6 -1
v -6 5 1
v -6 5 -0
v -6 5 -1
v -6 5 -2
v -6 6 1
v -6 6 -0
v -6 6 -1
v -6 6 -2
v -5 4 -0
v -5 4 -1
v -5 5 -0
v -5 5 -1
v -3 4 1
v -3 4 -0
v -3 4 -1
v -3 4 -2
v -3 5 1
v -3 5 -0
v -3 5 -1
v -3 5 -2
v -3 6 7
v -3 6 5
v -3 6 -6
v -3 6 -8
v -3 7 7
v -3 7 5
v -3 7 -6
v -3 7 -8
v -2 6 5
v -2 6 4
v -2 6 1
v -2 6 -2
v -2 6 -5
v -2 6 -6
v -2 7 5
v -2 7 4
v -2 7 1
v -2 7 -2
v -2 7 -5
v -2 7 -6
v -1 7 5
v -1 7 4
v -1 7 3
v -1 7 1
v -1 7 -2
v -1 7 -4
v -1 7 -5
v -1 7 -6
v -1 8 5
v -1 8 3
v -1 8 1
v -1 8 -2
v -1 8 -4
v -1 8 -6
v 0 8 4
v 0 8 3
v 0 8 1
v 0 8 -2
v 0 8 -4
v 0 8 -5
v 0 9 4
v 0 9 1
v 0 9 -2
v 0 9 -5
v 2 0 1
v 2 0 -0
v 2 0 -1
v 2 0 -2
v 2 3 1
v 2 3 -0
v 2 3 -1
v 2 3 -2
v 2 4 1
v 2 4 -0
v 2 4 -1
v 2 4 -2
v 4 9 1
v 4 9 -0
v 4 9 -1
v 4 9 -2
v 4 12 1
v 4 12 -2
v 2 6 7
v 2 6 6
v 2 6 -7
v 2 6 -8
v 2 7 7
v 2 7 6
v 2 7 -7
v 2 7 -8
v 3 1 1
v 3 1 -0
v 3 1 -1
v 3 1 -2
v 3 3 1
v 3 3 -0
v 3 3 -1
v 3 3 -2
v 3 4 1
v 3 4 -0
v 3 4 -1
v 3 4 -2
v 3 6 6
v 3 6 4
v 3 6 -5
v 3 6 -7
v 3 7 6
v 3 7 5
v 3 7 4
v 3 7 -5
v 3 7 -6
v 3 7 -7
v 4 4 1
v 4 4 -2
v 4 5 1
v 4 5 -2
v 4 7 5
v 4 7 3
v 4 7 -4
v 4 7 -6
v 4 8 5
v 4 8 4
v 4 8 3
v 4 8 -4
v 4 8 -5
v 4 8 -6
v 4 9 4
v 4 9 3
v 4 9 -4
v 4 9 -5
v 5 0 1
v 5 0 -0
v 5 0 -1
v 5 0 -2
v 5 1 1
v 5 1 -0
v 5 1 -1
v 5 1 -2
v 5 5 1
v 5 5 -2
v 5 6 1
v 5 6 -2
v 5 8 3
v 5 8 1
v 5 8 -2
v 5 8 -4
v 5 9 3
v 5 9 1
v 5 9 -2
v 5 9 -4
v 6 6 1
v 6 6 -2
v 6 10 1
v 6 10 -2
v 7 10 1
v 7 10 -0
v 7 10 -1
v 7 10 -2
v 7 11 -0
v 7 11 -1
v 7 12 1
v 7 12 -2
v 9 10 -0
v 9 10 -1
v 9 11 -0
v 9 11 -1
v -3 6 7
v -3 7 7
v 2 6 7
v 2 7 7
v 2 6 6
v 2 7 6
v 3 6 6
v 3 7 6
v -1 7 5
v -1 8 5
v 3 7 5
v 4 7 5
v 4 8 5
v 0 8 4
v 0 9 4
v 4 8 4
v 4 9 4
v 4 8 3
v 4 9 3
v 5 8 3
v 5 9 3
v -6 5 1
v -6 6 1
v -3 4 1
v -3 5 1
v -2 5 1
v -2 6 1
v -2 7 1
v -1 7 1
v -1 8 1
v 0 8 1
v 2 0 1
v 2 3 1
v 2 4 1
v 3 1 1
v 3 3 1
v 3 4 1
v 4 4 1
v 4 5 1
v 4 9 1
v 4 12 1
v 5 0 1
v 5 1 1
v 5 5 1
v 5 6 1
v 5 8 1
v 5 9 1
v 6 6 1
v 6 10 1
v 7 10 1
v 7 12 1
v -8 5 -0
v -8 6 -0
v -6 5 -0
v -6 6 -0
v -5 4 -0
v -5 5 -0
v -3 4 -0
v -3 5 -0
v 7 10 -0
v 7 11 -0
v 9 10 -0
v 9 11 -0
v 2 0 -1
v 2 3 -1
v 2 4 -1
v 3 1 -1
v 3 3 -1
v 3 4 -1
v 5 0 -1
v 5 1 -1
v -1 7 -4
v -1 8 -4
v 0 8 -4
v 4 7 -4
v 4 8 -4
v -2 6 -5
v -2 7 -5
v -1 7 -5
v 3 6 -5
v 3 7 -5
v -3 6 -6
v -3 7 -6
v -2 6 -6
v -2 7 -6
v -3 6 5
v -3 7 5
v -2 6 5
v -2 7 5
v -2 6 4
v -2 7 4
v -1 7 4
v 3 6 4
v 3 7 4
v -1 7 3
v -1 8 3
v 0 8 3
v 4 7 3
v 4 8 3
v 2 0 -0
v 2 3 -0
v 2 4 -0
v 3 1 -0
v 3 3 -0
v 3 4 -0
v 5 0 -0
v 5 1 -0
v -8 5 -1
v -8 6 -1
v -6 5 -1
v -6 6 -1
v -5 4 -1
v -5 5 -1
v -3 4 -1
v -3 5 -1
v 7 10 -1
v 7 11 -1
v 9 10 -1
v 9 11 -1
v -6 5 -2
v -6 6 -2
v -3 4 -2
v -3 5 -2
v -2 5 -2
v -2 6 -2
v -2 7 -2
v -1 7 -2
v -1 8 -2
v 0 8 -2
v 2 0 -2
v 2 3 -2
v 2 4 -2
v 3 1 -2
v 3 3 -2
v 3 4 -2
v 4 4 -2
v 4 5 -2
v 4 9 -2
v 4 12 -2
v 5 0 -2
v 5 1 -2
v 5 5 -2
v 5 6 -2
v 5 8 -2
v 5 9 -2
v 6 6 -2
v 6 10 -2
v 7 10 -2
v 7 12 -2
v 4 8 -4
v 4 9 -4
v 5 8 -4
v 5 9 -4
v 0 8 -5
v 0 9 -5
v 4 8 -5
v 4 9 -5
v -1 7 -6
v -1 8 -6
v 3 7 -6
v 4 7 -6
v 4 8 -6
v 2 6 -7
v 2 7 -7
v 3 6 -7
v 3 7 -7
v -3 6 -8
v -3 7 -8
v 2 6 -8
v 2 7 -8
v 2 0 1
v 5 0 1
v 2 0 -0
v 5 0 -0
v 2 0 -1
v 5 0 -1
v 2 0 -2
v 5 0 -2
v -3 4 1
v 2 4 1
v 3 4 1
v 4 4 1
v -5 4 -0
v -3 4 -0
v 2 4 -0
v 3 4 -0
v -5 4 -1
v -3 4 -1
v 2 4 -1
v 3 4 -1
v -3 4 -2
v 2 4 -2
v 3 4 -2
v 4 4 -2
v -6 5 1
v -3 5 1
v 4 5 1
v 5 5 1
v -8 5 -0
v -6 5 -0
v -5 5 -0
v -3 5 -0
v -8 5 -1
v -6 5 -1
v -5 5 -1
v -3 5 -1
v -6 5 -2
v -3 5 -2
v 4 5 -2
v 5 5 -2
v -3 6 7
v 2 6 7
v 2 6 6
v 3 6 6
v -3 6 5
v -2 6 5
v -2 6 4
v 3 6 4
v 5 6 1
v 6 6 1
v 5 6 -2
v 6 6 -2
v -2 6 -5
v 3 6 -5
v -3 6 -6
v -2 6 -6
v 2 6 -7
v 3 6 -7
v -3 6 -8
v 2 6 -8
v 3 7 5
v 4 7 5
v -1 7 4
v 3 7 4
v -1 7 3
v 4 7 3
v -1 7 -4
v 4 7 -4
v -1 7 -5
v 3 7 -5
v 3 7 -6
v 4 7 -6
v 0 8 3
v 4 8 3
v 5 8 3
v 0 8 1
v 5 8 1
v 0 8 -2
v 5 8 -2
v 0 8 -4
v 4 8 -4
v 5 8 -4
v 6 10 1
v 7 10 1
v 7 10 -0
v 9 10 -0
v 7 10 -1
v 9 10 -1
v 6 10 -2
v 7 10 -2
v 3 1 1
v 5 1 1
v 3 1 -0
v 5 1 -0
v 3 1 -1
v 5 1 -1
v 3 1 -2
v 5 1 -2
v -6 6 1
v -2 6 1
v -8 6 -0
v -6 6 -0
v -5 6 -0
v -8 6 -1
v -6 6 -1
v -5 6 -1
v -6 6 -2
v -2 6 -2
v -3 7 7
v 2 7 7
v 2 7 6
v 3 7 6
v -3 7 5
v -2 7 5
v -1 7 5
v 3 7 5
v -2 7 4
v -1 7 4
v -2 7 1
v -1 7 1
v -2 7 -2
v -1 7 -2
v -2 7 -5
v -1 7 -5
v -3 7 -6
v -2 7 -6
v -1 7 -6
v 3 7 -6
v 2 7 -7
v 3 7 -7
v -3 7 -8
v 2 7 -8
v -1 8 5
v 4 8 5
v 0 8 4
v 4 8 4
v -1 8 3
v 0 8 3
v -1 8 1
v 0 8 1
v -1 8 -2
v 0 8 -2
v -1 8 -4
v 0 8 -4
v 0 8 -5
v 4 8 -5
v -1 8 -6
v 4 8 -6
v 0 9 4
v 4 9 4
v 4 9 3
v 5 9 3
v 0 9 1
v 1 9 1
v 4 9 1
v 5 9 1
v 1 9 -0
v 2 9 -0
v 4 9 -0
v 1 9 -1
v 2 9 -1
v 4 9 -1
v 0 9 -2
v 1 9 -2
v 4 9 -2
v 5 9 -2
v 4 9 -4
v 5 9 -4
v 0 9 -5
v 4 9 -5
v 7 11 -0
v 9 11 -0
v 7 11 -1
v 9 11 -1
v 4 12 1
v 7 12 1
v 4 12 -2
v 7 12 -2

# faces
f 3/3/1 2/3/1 1/3/1
f 4/3/1 2/3/1 3/3/1
f 9/7/1 6/7/1 5/7/1
f 10/7/1 6/7/1 9/7/1
f 11/7/1 8/7/1 7/7/1
f 12/7/1 8/7/1 11/7/1
f 15/3/1 14/3/1 13/3/1
f 16/3/1 14/3/1 15/3/1
f 21/3/1 18/3/1 17/3/1
f 22/3/1 18/3/1 21/3/1
f 23/3/1 20/3/1 19/3/1
f 24/3/1 20/3/1 23/3/1
f 29/6/1 26/6/1 25/6/1
f 30/6/1 26/6/1 29/6/1
f 31/6/1 28/6/1 27/6/1
f 32/6/1 28/6/1 31/6/1
f 39/6/1 34/6/1 33/6/1
f 40/6/1 34/6/1 39/6/1
f 41/3/1 36/3/1 35/3/1
f 42/3/1 36/3/1 41/3/1
f 43/6/1 38/6/1 37/6/1
f 44/6/1 38/6/1 43/6/1
f 53/6/1 46/6/1 45/6/1
f 53/6/1 47/6/1 46/6/1
f 54/6/1 47/6/1 53/6/1
f 55/3/1 49/3/1 48/3/1
f 56/3/1 49/3/1 55/3/1
f 57/6/1 52/6/1 51/6/1
f 57/6/1 51/6/1 50/6/1
f 58/6/1 52/6/1 57/6/1
f 65/6/1 60/6/1 59/6/1
f 65/6/1 61/6/1 60/6/1
f 66/3/1 62/3/1 61/3/1
f 66/6/1 61/6/1 65/6/1
f 67/6/1 64/6/1 63/6/1
f 67/3/1 62/3/1 66/3/1
f 67/6/1 63/6/1 62/6/1
f 68/6/1 64/6/1 67/6/1
f 73/1/1 70/1/1 69/1/1
f 74/1/1 70/1/1 73/1/1
f 75/1/1 72/1/1 71/1/1
f 76/1/1 72/1/1 75/1/1
f 77/3/1 74/3/1 73/3/1
f 78/3/1 74/3/1 77/3/1
f 79/3/1 76/3/1 75/3/1
f 80/3/1 76/3/1 79/3/1
f 85/3/1 82/3/1 81/3/1
f 85/3/1 84/3/1 83/3/1
f 85/3/1 83/3/1 82/3/1
f 86/3/1 84/3/1 85/3/1
f 87/6/2 88/6/2 91/6/2
f 91/6/2 88/6/2 92/6/2
f 89/6/2 90/6/2 93/6/2
f 93/6/2 90/6/2 94/6/2
f 95/1/2 96/1/2 99/1/2
f 99/1/2 96/1/2 100/1/2
f 97/1/2 98/1/2 101/1/2
f 101/1/2 98/1/2 102/1/2
f 99/3/2 100/3/2 103/3/2
f 103/3/2 100/3/2 104/3/2
f 101/3/2 102/3/2 105/3/2
f 105/3/2 102/3/2 106/3/2
f 107/6/2 108/6/2 111/6/2
f 111/6/2 108/6/2 112/6/2
f 112/6/2 108/6/2 113/6/2
f 109/6/2 110/6/2 114/6/2
f 114/6/2 110/6/2 115/6/2
f 115/6/2 110/6/2 116/6/2
f 117/3/2 118/3/2 119/3/2
f 119/3/2 118/3/2 120/3/2
f 121/6/2 122/6/2 125/6/2
f 125/6/2 122/6/2 126/6/2
f 126/6/2 122/6/2 127/6/2
f 123/6/2 124/6/2 128/6/2
f 128/6/2 124/6/2 129/6/2
f 129/6/2 124/6/2 130/6/2
f 126/6/2 127/6/2 131/6/2
f 131/6/2 127/6/2 132/6/2
f 128/6/2 129/6/2 133/6/2
f 133/6/2 129/6/2 134/6/2
f 135/1/2 136/1/2 139/1/2
f 139/1/2 136/1/2 140/1/2
f 137/1/2 138/1/2 141/1/2
f 141/1/2 138/1/2 142/1/2
f 143/3/2 144/3/2 145/3/2
f 145/3/2 144/3/2 146/3/2
f 147/6/2 148/6/2 151/6/2
f 151/6/2 148/6/2 152/6/2
f 149/6/2 150/6/2 153/6/2
f 153/6/2 150/6/2 154/6/2
f 155/3/2 156/3/2 157/3/2
f 157/3/2 156/3/2 158/3/2
f 159/3/2 160/3/2 163/3/2
f 161/3/2 162/3/2 164/3/2
f 159/3/2 163/3/2 165/3/2
f 163/3/2 164/3/2 165/3/2
f 164/3/2 162/3/2 166/3/2
f 165/3/2 164/3/2 166/3/2
f 167/1/2 168/1/2 169/1/2
f 169/1/2 168/1/2 170/1/2
f 173/6/3 172/6/3 171/6/3
f 174/6/3 172/6/3 173/6/3
f 177/6/3 176/6/3 175/6/3
f 178/6/3 176/6/3 177/6/3
f 181/6/3 180/6/3 179/6/3
f 182/6/3 180/6/3 181/6/3
f 183/6/3 180/6/3 182/6/3
f 186/6/3 185/6/3 184/6/3
f 187/6/3 185/6/3 186/6/3
f 190/6/3 189/6/3 188/6/3
f 191/6/3 189/6/3 190/6/3
f 195/7/3 193/7/3 192/7/3
f 196/7/3 193/7/3 195/7/3
f 196/3/3 195/3/3 194/3/3
f 197/7/3 193/7/3 196/7/3
f 199/3/3 197/3/3 196/3/3
f 199/3/3 198/3/3 197/3/3
f 201/3/3 200/3/3 199/3/3
f 204/3/3 196/3/3 194/3/3
f 204/3/3 199/3/3 196/3/3
f 204/3/3 201/3/3 199/3/3
f 205/1/3 203/1/3 202/1/3
f 206/3/3 204/3/3 203/3/3
f 206/1/3 203/1/3 205/1/3
f 207/3/3 201/3/3 204/3/3
f 207/3/3 204/3/3 206/3/3
f 208/3/3 201/3/3 207/3/3
f 209/3/3 201/3/3 208/3/3
f 212/1/3 205/1/3 202/1/3
f 213/1/3 205/1/3 212/1/3
f 214/3/3 201/3/3 209/3/3
f 215/3/3 201/3/3 214/3/3
f 216/3/3 201/3/3 215/3/3
f 217/3/3 211/3/3 210/3/3
f 218/3/3 216/3/3 215/3/3
f 218/3/3 217/3/3 216/3/3
f 219/3/3 211/3/3 217/3/3
f 219/3/3 217/3/3 218/3/3
f 220/3/3 211/3/3 219/3/3
f 221/3/3 211/3/3 220/3/3
f 224/3/3 223/3/3 222/3/3
f 225/3/3 223/3/3 224/3/3
f 228/3/3 227/3/3 226/3/3
f 229/3/3 227/3/3 228/3/3
f 232/1/3 231/1/3 230/1/3
f 233/1/3 231/1/3 232/1/3
f 237/1/3 235/1/3 234/1/3
f 238/3/3 236/3/3 235/3/3
f 238/1/3 235/1/3 237/1/3
f 239/3/3 236/3/3 238/3/3
f 240/1/3 237/1/3 234/1/3
f 241/1/3 237/1/3 240/1/3
f 244/6/3 243/6/3 242/6/3
f 245/6/3 244/6/3 242/6/3
f 246/6/3 244/6/3 245/6/3
f 249/6/3 248/6/3 247/6/3
f 250/6/3 249/6/3 247/6/3
f 251/6/3 249/6/3 250/6/3
f 254/6/3 253/6/3 252/6/3
f 255/6/3 253/6/3 254/6/3
f 256/6/4 257/6/4 258/6/4
f 258/6/4 257/6/4 259/6/4
f 260/6/4 261/6/4 262/6/4
f 260/6/4 262/6/4 263/6/4
f 263/6/4 262/6/4 264/6/4
f 265/6/4 266/6/4 267/6/4
f 265/6/4 267/6/4 268/6/4
f 268/6/4 267/6/4 269/6/4
f 270/1/4 271/1/4 273/1/4
f 271/3/4 272/3/4 274/3/4
f 273/1/4 271/1/4 274/1/4
f 274/3/4 272/3/4 275/3/4
f 270/1/4 273/1/4 276/1/4
f 276/1/4 273/1/4 277/1/4
f 278/3/4 279/3/4 280/3/4
f 280/3/4 279/3/4 281/3/4
f 282/3/4 283/3/4 284/3/4
f 284/3/4 283/3/4 285/3/4
f 286/1/4 287/1/4 288/1/4
f 288/1/4 287/1/4 289/1/4
f 290/7/4 291/7/4 293/7/4
f 293/7/4 291/7/4 294/7/4
f 292/3/4 293/3/4 294/3/4
f 294/7/4 291/7/4 295/7/4
f 294/3/4 295/3/4 297/3/4
f 295/3/4 296/3/4 297/3/4
f 297/3/4 298/3/4 299/3/4
f 292/3/4 294/3/4 302/3/4
f 294/3/4 297/3/4 302/3/4
f 297/3/4 299/3/4 302/3/4
f 300/1/4 301/1/4 303/1/4
f 301/3/4 302/3/4 304/3/4
f 303/1/4 301/1/4 304/1/4
f 302/3/4 299/3/4 305/3/4
f 304/3/4 302/3/4 305/3/4
f 305/3/4 299/3/4 306/3/4
f 306/3/4 299/3/4 307/3/4
f 300/1/4 303/1/4 310/1/4
f 310/1/4 303/1/4 311/1/4
f 307/3/4 299/3/4 312/3/4
f 312/3/4 299/3/4 313/3/4
f 313/3/4 299/3/4 314/3/4
f 308/3/4 309/3/4 315/3/4
f 313/3/4 314/3/4 316/3/4
f 314/3/4 315/3/4 316/3/4
f 315/3/4 309/3/4 317/3/4
f 316/3/4 315/3/4 317/3/4
f 317/3/4 309/3/4 318/3/4
f 318/3/4 309/3/4 319/3/4
f 320/6/4 321/6/4 322/6/4
f 322/6/4 321/6/4 323/6/4
f 324/6/4 325/6/4 326/6/4
f 326/6/4 325/6/4 327/6/4
f 328/6/4 329/6/4 330/6/4
f 330/6/4 329/6/4 331/6/4
f 331/6/4 329/6/4 332/6/4
f 333/6/4 334/6/4 335/6/4
f 335/6/4 334/6/4 336/6/4
f 337/6/4 338/6/4 339/6/4
f 339/6/4 338/6/4 340/6/4
f 343/1/5 342/1/5 341/1/5
f 344/1/5 342/1/5 343/1/5
f 347/1/5 346/1/5 345/1/5
f 348/1/5 346/1/5 347/1/5
f 354/3/5 350/3/5 349/3/5
f 355/3/5 350/3/5 354/3/5
f 356/3/5 352/3/5 351/3/5
f 357/3/5 355/3/5 354/3/5
f 357/3/5 356/3/5 355/3/5
f 357/3/5 354/3/5 353/3/5
f 358/3/5 356/3/5 357/3/5
f 359/3/5 356/3/5 358/3/5
f 360/3/5 352/3/5 356/3/5
f 360/3/5 356/3/5 359/3/5
f 361/3/5 359/3/5 358/3/5
f 362/3/5 359/3/5 361/3/5
f 363/3/5 352/3/5 360/3/5
f 364/3/5 352/3/5 363/3/5
f 370/7/5 366/7/5 365/7/5
f 371/7/5 366/7/5 370/7/5
f 372/7/5 366/7/5 371/7/5
f 373/3/5 370/3/5 369/3/5
f 373/3/5 371/3/5 370/3/5
f 374/3/5 371/3/5 373/3/5
f 375/3/5 371/3/5 374/3/5
f 377/7/5 376/7/5 375/7/5
f 377/7/5 375/7/5 374/7/5
f 378/7/5 376/7/5 377/7/5
f 379/3/5 368/3/5 367/3/5
f 380/3/5 368/3/5 379/3/5
f 383/6/5 382/6/5 381/6/5
f 385/6/5 383/6/5 381/6/5
f 385/6/5 384/6/5 383/6/5
f 386/6/5 384/6/5 385/6/5
f 387/6/5 384/6/5 386/6/5
f 388/6/5 384/6/5 387/6/5
f 391/3/5 390/3/5 389/3/5
f 392/3/5 390/3/5 391/3/5
f 396/6/5 394/6/5 393/6/5
f 397/6/5 394/6/5 396/6/5
f 397/6/5 396/6/5 395/6/5
f 398/6/5 394/6/5 397/6/5
f 399/6/5 397/6/5 395/6/5
f 400/6/5 397/6/5 399/6/5
f 404/6/5 402/6/5 401/6/5
f 405/6/5 404/6/5 403/6/5
f 406/6/5 402/6/5 404/6/5
f 406/6/5 404/6/5 405/6/5
f 409/6/5 408/6/5 407/6/5
f 410/6/5 408/6/5 409/6/5
f 411/6/5 408/6/5 410/6/5
f 412/6/5 408/6/5 411/6/5
f 416/6/5 414/6/5 413/6/5
f 416/6/5 415/6/5 414/6/5
f 417/6/5 415/6/5 416/6/5
f 420/6/5 419/6/5 418/6/5
f 421/6/5 419/6/5 420/6/5
f 422/6/5 419/6/5 421/6/5
f 425/3/5 424/3/5 423/3/5
f 427/3/5 425/3/5 423/3/5
f 427/1/5 426/1/5 425/1/5
f 428/1/5 426/1/5 427/1/5
f 429/3/5 427/3/5 423/3/5
f 430/3/5 427/3/5 429/3/5
f 431/1/6 432/1/6 433/1/6
f 433/1/6 432/1/6 434/1/6
f 435/1/6 436/1/6 437/1/6
f 437/1/6 436/1/6 438/1/6
f 439/7/6 440/7/6 442/7/6
f 442/7/6 440/7/6 443/7/6
f 441/3/6 442/3/6 444/3/6
f 442/3/6 443/3/6 444/3/6
f 444/3/6 443/3/6 445/3/6
f 443/7/6 440/7/6 446/7/6
f 445/3/6 443/3/6 446/3/6
f 445/7/6 446/7/6 447/7/6
f 446/7/6 440/7/6 448/7/6
f 447/7/6 446/7/6 448/7/6
f 449/6/6 450/6/6 451/6/6
f 449/6/6 451/6/6 453/6/6
f 451/6/6 452/6/6 453/6/6
f 453/6/6 452/6/6 454/6/6
f 454/6/6 452/6/6 455/6/6
f 455/6/6 452/6/6 456/6/6
f 454/6/6 455/6/6 457/6/6
f 457/6/6 455/6/6 458/6/6
f 459/3/6 460/3/6 461/3/6
f 461/3/6 460/3/6 462/3/6
f 463/6/6 464/6/6 466/6/6
f 466/6/6 464/6/6 467/6/6
f 466/6/6 467/6/6 469/6/6
f 467/6/6 468/6/6 469/6/6
f 465/6/6 466/6/6 469/6/6
f 469/6/6 468/6/6 470/6/6
f 465/6/6 469/6/6 471/6/6
f 471/6/6 469/6/6 472/6/6
f 473/6/6 474/6/6 475/6/6
f 475/6/6 474/6/6 476/6/6
f 473/6/6 475/6/6 477/6/6
f 477/6/6 475/6/6 478/6/6
f 479/3/6 480/3/6 481/3/6
f 481/3/6 480/3/6 482/3/6
f 483/6/6 484/6/6 485/6/6
f 483/6/6 485/6/6 487/6/6
f 485/6/6 486/6/6 487/6/6
f 487/6/6 486/6/6 488/6/6
f 489/6/6 490/6/6 491/6/6
f 489/6/6 491/6/6 493/6/6
f 491/6/6 492/6/6 493/6/6
f 493/6/6 492/6/6 494/6/6
f 494/6/6 492/6/6 495/6/6
f 495/6/6 492/6/6 496/6/6
f 493/3/6 494/3/6 497/3/6
f 494/5/6 495/5/6 497/5/6
f 497/5/6 495/5/6 498/5/6
f 498/5/6 495/5/6 499/5/6
f 493/3/6 497/3/6 500/3/6
f 497/3/6 498/3/6 500/3/6
f 498/4/6 499/4/6 501/4/6
f 500/3/6 498/3/6 501/3/6
f 501/4/6 499/4/6 502/4/6
f 493/3/6 500/3/6 503/3/6
f 500/5/6 501/5/6 504/5/6
f 503/3/6 500/3/6 504/3/6
f 501/5/6 502/5/6 504/5/6
f 504/5/6 502/5/6 505/5/6
f 504/6/6 505/6/6 507/6/6
f 505/6/6 506/6/6 507/6/6
f 503/6/6 504/6/6 507/6/6
f 507/6/6 506/6/6 508/6/6
f 503/6/6 507/6/6 509/6/6
f 509/6/6 507/6/6 510/6/6
f 511/1/6 512/1/6 513/1/6
f 513/1/6 512/1/6 514/1/6
f 515/3/6 516/3/6 517/3/6
f 517/3/6 516/3/6 518/3/6
