# MagicaVoxel @ Ephtracy

# material
mtllib Gull@Flying-04.mtl
usemtl palette

# normals
vn -1 0 0
vn 1 0 0
vn 0 0 1
vn 0 0 -1
vn 0 -1 0
vn 0 1 0

# texcoords
vt 0.0644531 0.5
vt 0.306641 0.5
vt 0.958984 0.5
vt 0.966797 0.5
vt 0.970703 0.5
vt 0.978516 0.5
vt 0.990234 0.5

# verts
v -8 5 -0
v -8 5 -1
v -8 6 -0
v -8 6 -1
v -6 5 1
v -6 5 -0
v -6 5 -1
v -6 5 -2
v -6 6 1
v -6 6 -0
v -6 6 -1
v -6 6 -2
v -5 4 -0
v -5 4 -1
v -5 5 -0
v -5 5 -1
v -4 12 5
v -4 12 4
v -4 12 -5
v -4 12 -6
v -4 13 5
v -4 13 4
v -4 13 -5
v -4 13 -6
v -3 4 1
v -3 4 -0
v -3 4 -1
v -3 4 -2
v -3 5 1
v -3 5 -0
v -3 5 -1
v -3 5 -2
v -3 11 5
v -3 11 4
v -3 11 -5
v -3 11 -6
v -3 12 5
v -3 12 4
v -3 12 -5
v -3 12 -6
v -2 6 1
v -2 6 -2
v -2 7 1
v -2 7 -2
v -2 11 4
v -2 11 3
v -2 11 -4
v -2 11 -5
v -2 12 4
v -2 12 3
v -2 12 -4
v -2 12 -5
v -1 7 1
v -1 7 -2
v -1 8 1
v -1 8 -2
v -1 9 3
v -1 9 2
v -1 9 -3
v -1 9 -4
v -1 10 4
v -1 10 3
v -1 10 -4
v -1 10 -5
v -1 11 4
v -1 11 3
v -1 11 2
v -1 11 -3
v -1 11 -4
v -1 11 -5
v 0 8 2
v 0 8 1
v 0 8 -2
v 0 8 -3
v 0 9 2
v 0 9 1
v 0 9 -2
v 0 9 -3
v 0 10 2
v 0 10 1
v 0 10 -2
v 0 10 -3
v 2 0 1
v 2 0 -0
v 2 0 -1
v 2 0 -2
v 2 3 1
v 2 3 -0
v 2 3 -1
v 2 3 -2
v 2 4 1
v 2 4 -0
v 2 4 -1
v 2 4 -2
v 4 9 1
v 4 9 -0
v 4 9 -1
v 4 9 -2
v 4 10 1
v 4 10 -2
v 4 12 1
v 4 12 -2
v 2 12 5
v 2 12 4
v 2 12 -5
v 2 12 -6
v 2 13 5
v 2 13 4
v 2 13 -5
v 2 13 -6
v 3 1 1
v 3 1 -0
v 3 1 -1
v 3 1 -2
v 3 3 1
v 3 3 -0
v 3 3 -1
v 3 3 -2
v 3 4 1
v 3 4 -0
v 3 4 -1
v 3 4 -2
v 3 11 5
v 3 11 4
v 3 11 3
v 3 11 -4
v 3 11 -5
v 3 11 -6
v 3 12 5
v 3 12 3
v 3 12 -4
v 3 12 -6
v 4 4 1
v 4 4 -2
v 4 5 1
v 4 5 -2
v 4 10 4
v 4 10 3
v 4 10 2
v 4 10 -3
v 4 10 -4
v 4 10 -5
v 4 11 4
v 4 11 2
v 4 11 -3
v 4 11 -5
v 5 0 1
v 5 0 -0
v 5 0 -1
v 5 0 -2
v 5 1 1
v 5 1 -0
v 5 1 -1
v 5 1 -2
v 5 5 1
v 5 5 -2
v 5 6 1
v 5 6 -2
v 5 8 2
v 5 8 1
v 5 8 -2
v 5 8 -3
v 5 9 3
v 5 9 2
v 5 9 -3
v 5 9 -4
v 5 10 3
v 5 10 1
v 5 10 -2
v 5 10 -4
v 6 6 1
v 6 6 -2
v 6 10 1
v 6 10 -2
v 7 10 1
v 7 10 -0
v 7 10 -1
v 7 10 -2
v 7 11 -0
v 7 11 -1
v 7 12 1
v 7 12 -2
v 9 10 -0
v 9 10 -1
v 9 11 -0
v 9 11 -1
v -4 12 5
v -4 13 5
v -3 11 5
v -3 12 5
v 2 12 5
v 2 13 5
v 3 11 5
v 3 12 5
v -1 10 4
v -1 11 4
v 3 11 4
v 4 10 4
v 4 11 4
v -1 9 3
v -1 10 3
v 4 10 3
v 5 9 3
v 5 10 3
v 0 8 2
v 0 9 2
v 5 8 2
v 5 9 2
v -6 5 1
v -6 6 1
v -3 4 1
v -3 5 1
v -2 5 1
v -2 6 1
v -2 7 1
v -1 7 1
v -1 8 1
v 0 8 1
v 2 0 1
v 2 3 1
v 2 4 1
v 3 1 1
v 3 3 1
v 3 4 1
v 4 4 1
v 4 5 1
v 4 10 1
v 4 12 1
v 5 0 1
v 5 1 1
v 5 5 1
v 5 6 1
v 5 8 1
v 5 10 1
v 6 6 1
v 6 10 1
v 7 10 1
v 7 12 1
v -8 5 -0
v -8 6 -0
v -6 5 -0
v -6 6 -0
v -5 4 -0
v -5 5 -0
v -3 4 -0
v -3 5 -0
v 7 10 -0
v 7 11 -0
v 9 10 -0
v 9 11 -0
v 2 0 -1
v 2 3 -1
v 2 4 -1
v 3 1 -1
v 3 3 -1
v 3 4 -1
v 5 0 -1
v 5 1 -1
v 0 9 -2
v 0 10 -2
v 1 9 -2
v 4 9 -2
v 4 10 -2
v -1 9 -3
v -1 11 -3
v 0 9 -3
v 0 10 -3
v 4 10 -3
v 4 11 -3
v -2 11 -4
v -2 12 -4
v -1 11 -4
v 3 11 -4
v 3 12 -4
v -4 12 -5
v -4 13 -5
v -3 11 -5
v -3 12 -5
v -2 11 -5
v -2 12 -5
v 2 12 -5
v 2 13 -5
v -4 12 4
v -4 13 4
v -3 11 4
v -3 12 4
v -2 11 4
v -2 12 4
v 2 12 4
v 2 13 4
v -2 11 3
v -2 12 3
v -1 11 3
v 3 11 3
v 3 12 3
v -1 9 2
v -1 11 2
v 0 9 2
v 0 10 2
v 4 10 2
v 4 11 2
v 0 9 1
v 0 10 1
v 1 9 1
v 4 9 1
v 4 10 1
v 2 0 -0
v 2 3 -0
v 2 4 -0
v 3 1 -0
v 3 3 -0
v 3 4 -0
v 5 0 -0
v 5 1 -0
v -8 5 -1
v -8 6 -1
v -6 5 -1
v -6 6 -1
v -5 4 -1
v -5 5 -1
v -3 4 -1
v -3 5 -1
v 7 10 -1
v 7 11 -1
v 9 10 -1
v 9 11 -1
v -6 5 -2
v -6 6 -2
v -3 4 -2
v -3 5 -2
v -2 5 -2
v -2 6 -2
v -2 7 -2
v -1 7 -2
v -1 8 -2
v 0 8 -2
v 2 0 -2
v 2 3 -2
v 2 4 -2
v 3 1 -2
v 3 3 -2
v 3 4 -2
v 4 4 -2
v 4 5 -2
v 4 10 -2
v 4 12 -2
v 5 0 -2
v 5 1 -2
v 5 5 -2
v 5 6 -2
v 5 8 -2
v 5 10 -2
v 6 6 -2
v 6 10 -2
v 7 10 -2
v 7 12 -2
v 0 8 -3
v 0 9 -3
v 5 8 -3
v 5 9 -3
v -1 9 -4
v -1 10 -4
v 4 10 -4
v 5 9 -4
v 5 10 -4
v -1 10 -5
v -1 11 -5
v 3 11 -5
v 4 10 -5
v 4 11 -5
v -4 12 -6
v -4 13 -6
v -3 11 -6
v -3 12 -6
v 2 12 -6
v 2 13 -6
v 3 11 -6
v 3 12 -6
v 2 0 1
v 5 0 1
v 2 0 -0
v 5 0 -0
v 2 0 -1
v 5 0 -1
v 2 0 -2
v 5 0 -2
v -3 4 1
v 2 4 1
v 3 4 1
v 4 4 1
v -5 4 -0
v -3 4 -0
v 2 4 -0
v 3 4 -0
v -5 4 -1
v -3 4 -1
v 2 4 -1
v 3 4 -1
v -3 4 -2
v 2 4 -2
v 3 4 -2
v 4 4 -2
v -6 5 1
v -3 5 1
v 4 5 1
v 5 5 1
v -8 5 -0
v -6 5 -0
v -5 5 -0
v -3 5 -0
v -8 5 -1
v -6 5 -1
v -5 5 -1
v -3 5 -1
v -6 5 -2
v -3 5 -2
v 4 5 -2
v 5 5 -2
v 5 6 1
v 6 6 1
v 5 6 -2
v 6 6 -2
v 0 8 2
v 5 8 2
v 0 8 1
v 5 8 1
v 0 8 -2
v 5 8 -2
v 0 8 -3
v 5 8 -3
v -1 9 3
v 5 9 3
v -1 9 2
v 0 9 2
v 5 9 2
v -1 9 -3
v 0 9 -3
v 5 9 -3
v -1 9 -4
v 5 9 -4
v -1 10 4
v 4 10 4
v -1 10 3
v 4 10 3
v 6 10 1
v 7 10 1
v 7 10 -0
v 9 10 -0
v 7 10 -1
v 9 10 -1
v 6 10 -2
v 7 10 -2
v -1 10 -4
v 4 10 -4
v -1 10 -5
v 4 10 -5
v -3 11 5
v 3 11 5
v -3 11 4
v -2 11 4
v -1 11 4
v 3 11 4
v -2 11 3
v -1 11 3
v -2 11 -4
v -1 11 -4
v -3 11 -5
v -2 11 -5
v -1 11 -5
v 3 11 -5
v -3 11 -6
v 3 11 -6
v -4 12 5
v -3 12 5
v -4 12 4
v -3 12 4
v -4 12 -5
v -3 12 -5
v -4 12 -6
v -3 12 -6
v 3 1 1
v 5 1 1
v 3 1 -0
v 5 1 -0
v 3 1 -1
v 5 1 -1
v 3 1 -2
v 5 1 -2
v -6 6 1
v -2 6 1
v -8 6 -0
v -6 6 -0
v -5 6 -0
v -8 6 -1
v -6 6 -1
v -5 6 -1
v -6 6 -2
v -2 6 -2
v -2 7 1
v -1 7 1
v -2 7 -2
v -1 7 -2
v -1 8 1
v 0 8 1
v -1 8 -2
v 0 8 -2
v 0 9 1
v 1 9 1
v 4 9 1
v 1 9 -0
v 2 9 -0
v 4 9 -0
v 1 9 -1
v 2 9 -1
v 4 9 -1
v 0 9 -2
v 1 9 -2
v 4 9 -2
v 4 10 3
v 5 10 3
v 0 10 2
v 4 10 2
v 0 10 1
v 4 10 1
v 5 10 1
v 0 10 -2
v 4 10 -2
v 5 10 -2
v 0 10 -3
v 4 10 -3
v 4 10 -4
v 5 10 -4
v 3 11 4
v 4 11 4
v -1 11 3
v 3 11 3
v -1 11 2
v 4 11 2
v 7 11 -0
v 9 11 -0
v 7 11 -1
v 9 11 -1
v -1 11 -3
v 4 11 -3
v -1 11 -4
v 3 11 -4
v 3 11 -5
v 4 11 -5
v 2 12 5
v 3 12 5
v -2 12 4
v 2 12 4
v -2 12 3
v 3 12 3
v 4 12 1
v 7 12 1
v 4 12 -2
v 7 12 -2
v -2 12 -4
v 3 12 -4
v -2 12 -5
v 2 12 -5
v 2 12 -6
v 3 12 -6
v -4 13 5
v 2 13 5
v -4 13 4
v 2 13 4
v -4 13 -5
v 2 13 -5
v -4 13 -6
v 2 13 -6

# faces
f 3/3/1 2/3/1 1/3/1
f 4/3/1 2/3/1 3/3/1
f 9/7/1 6/7/1 5/7/1
f 10/7/1 6/7/1 9/7/1
f 11/7/1 8/7/1 7/7/1
f 12/7/1 8/7/1 11/7/1
f 15/3/1 14/3/1 13/3/1
f 16/3/1 14/3/1 15/3/1
f 21/6/1 18/6/1 17/6/1
f 22/6/1 18/6/1 21/6/1
f 23/6/1 20/6/1 19/6/1
f 24/6/1 20/6/1 23/6/1
f 29/3/1 26/3/1 25/3/1
f 30/3/1 26/3/1 29/3/1
f 31/3/1 28/3/1 27/3/1
f 32/3/1 28/3/1 31/3/1
f 37/6/1 34/6/1 33/6/1
f 38/6/1 34/6/1 37/6/1
f 39/6/1 36/6/1 35/6/1
f 40/6/1 36/6/1 39/6/1
f 43/3/1 42/3/1 41/3/1
f 44/3/1 42/3/1 43/3/1
f 49/6/1 46/6/1 45/6/1
f 50/6/1 46/6/1 49/6/1
f 51/6/1 48/6/1 47/6/1
f 52/6/1 48/6/1 51/6/1
f 55/3/1 54/3/1 53/3/1
f 56/3/1 54/3/1 55/3/1
f 62/6/1 58/6/1 57/6/1
f 63/6/1 60/6/1 59/6/1
f 65/6/1 62/6/1 61/6/1
f 66/6/1 58/6/1 62/6/1
f 66/6/1 62/6/1 65/6/1
f 67/6/1 58/6/1 66/6/1
f 68/6/1 64/6/1 63/6/1
f 68/6/1 63/6/1 59/6/1
f 69/6/1 64/6/1 68/6/1
f 70/6/1 64/6/1 69/6/1
f 75/6/1 72/6/1 71/6/1
f 76/3/1 73/3/1 72/3/1
f 76/6/1 72/6/1 75/6/1
f 77/6/1 74/6/1 73/6/1
f 77/3/1 73/3/1 76/3/1
f 78/6/1 74/6/1 77/6/1
f 79/6/1 76/6/1 75/6/1
f 80/6/1 76/6/1 79/6/1
f 81/6/1 78/6/1 77/6/1
f 82/6/1 78/6/1 81/6/1
f 87/1/1 84/1/1 83/1/1
f 88/1/1 84/1/1 87/1/1
f 89/1/1 86/1/1 85/1/1
f 90/1/1 86/1/1 89/1/1
f 91/3/1 88/3/1 87/3/1
f 92/3/1 88/3/1 91/3/1
f 93/3/1 90/3/1 89/3/1
f 94/3/1 90/3/1 93/3/1
f 99/3/1 96/3/1 95/3/1
f 99/3/1 98/3/1 97/3/1
f 99/3/1 97/3/1 96/3/1
f 100/3/1 98/3/1 99/3/1
f 101/3/1 100/3/1 99/3/1
f 102/3/1 100/3/1 101/3/1
f 103/6/2 104/6/2 107/6/2
f 107/6/2 104/6/2 108/6/2
f 105/6/2 106/6/2 109/6/2
f 109/6/2 106/6/2 110/6/2
f 111/1/2 112/1/2 115/1/2
f 115/1/2 112/1/2 116/1/2
f 113/1/2 114/1/2 117/1/2
f 117/1/2 114/1/2 118/1/2
f 115/3/2 116/3/2 119/3/2
f 119/3/2 116/3/2 120/3/2
f 117/3/2 118/3/2 121/3/2
f 121/3/2 118/3/2 122/3/2
f 124/6/2 125/6/2 129/6/2
f 123/6/2 124/6/2 129/6/2
f 129/6/2 125/6/2 130/6/2
f 127/6/2 128/6/2 131/6/2
f 126/6/2 127/6/2 131/6/2
f 131/6/2 128/6/2 132/6/2
f 133/3/2 134/3/2 135/3/2
f 135/3/2 134/3/2 136/3/2
f 138/6/2 139/6/2 143/6/2
f 137/6/2 138/6/2 143/6/2
f 143/6/2 139/6/2 144/6/2
f 141/6/2 142/6/2 145/6/2
f 140/6/2 141/6/2 145/6/2
f 145/6/2 142/6/2 146/6/2
f 147/1/2 148/1/2 151/1/2
f 151/1/2 148/1/2 152/1/2
f 149/1/2 150/1/2 153/1/2
f 153/1/2 150/1/2 154/1/2
f 155/3/2 156/3/2 157/3/2
f 157/3/2 156/3/2 158/3/2
f 159/6/2 160/6/2 164/6/2
f 161/6/2 162/6/2 165/6/2
f 163/6/2 164/6/2 167/6/2
f 164/6/2 160/6/2 168/6/2
f 167/6/2 164/6/2 168/6/2
f 165/6/2 166/6/2 169/6/2
f 161/6/2 165/6/2 169/6/2
f 169/6/2 166/6/2 170/6/2
f 171/3/2 172/3/2 173/3/2
f 173/3/2 172/3/2 174/3/2
f 175/3/2 176/3/2 179/3/2
f 177/3/2 178/3/2 180/3/2
f 175/3/2 179/3/2 181/3/2
f 179/3/2 180/3/2 181/3/2
f 180/3/2 178/3/2 182/3/2
f 181/3/2 180/3/2 182/3/2
f 183/1/2 184/1/2 185/1/2
f 185/1/2 184/1/2 186/1/2
f 190/6/3 188/6/3 187/6/3
f 191/6/3 188/6/3 190/6/3
f 191/6/3 190/6/3 189/6/3
f 192/6/3 188/6/3 191/6/3
f 193/6/3 191/6/3 189/6/3
f 194/6/3 191/6/3 193/6/3
f 197/6/3 196/6/3 195/6/3
f 198/6/3 197/6/3 195/6/3
f 199/6/3 197/6/3 198/6/3
f 202/6/3 201/6/3 200/6/3
f 203/6/3 202/6/3 200/6/3
f 204/6/3 202/6/3 203/6/3
f 207/6/3 206/6/3 205/6/3
f 208/6/3 206/6/3 207/6/3
f 212/7/3 210/7/3 209/7/3
f 213/7/3 210/7/3 212/7/3
f 213/3/3 212/3/3 211/3/3
f 214/7/3 210/7/3 213/7/3
f 216/3/3 214/3/3 213/3/3
f 216/3/3 215/3/3 214/3/3
f 218/3/3 217/3/3 216/3/3
f 221/3/3 213/3/3 211/3/3
f 221/3/3 216/3/3 213/3/3
f 221/3/3 218/3/3 216/3/3
f 222/1/3 220/1/3 219/1/3
f 223/3/3 221/3/3 220/3/3
f 223/1/3 220/1/3 222/1/3
f 224/3/3 218/3/3 221/3/3
f 224/3/3 221/3/3 223/3/3
f 225/3/3 218/3/3 224/3/3
f 226/3/3 218/3/3 225/3/3
f 229/1/3 222/1/3 219/1/3
f 230/1/3 222/1/3 229/1/3
f 231/3/3 218/3/3 226/3/3
f 232/3/3 218/3/3 231/3/3
f 233/3/3 218/3/3 232/3/3
f 234/3/3 228/3/3 227/3/3
f 235/3/3 233/3/3 232/3/3
f 235/3/3 234/3/3 233/3/3
f 236/3/3 228/3/3 234/3/3
f 236/3/3 234/3/3 235/3/3
f 237/3/3 228/3/3 236/3/3
f 238/3/3 228/3/3 237/3/3
f 241/3/3 240/3/3 239/3/3
f 242/3/3 240/3/3 241/3/3
f 245/3/3 244/3/3 243/3/3
f 246/3/3 244/3/3 245/3/3
f 249/1/3 248/1/3 247/1/3
f 250/1/3 248/1/3 249/1/3
f 254/1/3 252/1/3 251/1/3
f 255/3/3 253/3/3 252/3/3
f 255/1/3 252/1/3 254/1/3
f 256/3/3 253/3/3 255/3/3
f 257/1/3 254/1/3 251/1/3
f 258/1/3 254/1/3 257/1/3
f 261/6/3 260/6/3 259/6/3
f 262/6/3 260/6/3 261/6/3
f 263/6/3 260/6/3 262/6/3
f 266/6/3 265/6/3 264/6/3
f 267/6/3 265/6/3 266/6/3
f 268/6/3 265/6/3 267/6/3
f 269/6/3 265/6/3 268/6/3
f 272/6/3 271/6/3 270/6/3
f 273/6/3 271/6/3 272/6/3
f 274/6/3 271/6/3 273/6/3
f 278/6/3 276/6/3 275/6/3
f 279/6/3 278/6/3 277/6/3
f 280/6/3 276/6/3 278/6/3
f 280/6/3 278/6/3 279/6/3
f 281/6/3 276/6/3 280/6/3
f 282/6/3 276/6/3 281/6/3
f 283/6/4 284/6/4 286/6/4
f 285/6/4 286/6/4 287/6/4
f 286/6/4 284/6/4 288/6/4
f 287/6/4 286/6/4 288/6/4
f 288/6/4 284/6/4 289/6/4
f 289/6/4 284/6/4 290/6/4
f 291/6/4 292/6/4 293/6/4
f 293/6/4 292/6/4 294/6/4
f 294/6/4 292/6/4 295/6/4
f 296/6/4 297/6/4 298/6/4
f 298/6/4 297/6/4 299/6/4
f 299/6/4 297/6/4 300/6/4
f 300/6/4 297/6/4 301/6/4
f 302/6/4 303/6/4 304/6/4
f 304/6/4 303/6/4 305/6/4
f 305/6/4 303/6/4 306/6/4
f 307/1/4 308/1/4 310/1/4
f 308/3/4 309/3/4 311/3/4
f 310/1/4 308/1/4 311/1/4
f 311/3/4 309/3/4 312/3/4
f 307/1/4 310/1/4 313/1/4
f 313/1/4 310/1/4 314/1/4
f 315/3/4 316/3/4 317/3/4
f 317/3/4 316/3/4 318/3/4
f 319/3/4 320/3/4 321/3/4
f 321/3/4 320/3/4 322/3/4
f 323/1/4 324/1/4 325/1/4
f 325/1/4 324/1/4 326/1/4
f 327/7/4 328/7/4 330/7/4
f 330/7/4 328/7/4 331/7/4
f 329/3/4 330/3/4 331/3/4
f 331/7/4 328/7/4 332/7/4
f 331/3/4 332/3/4 334/3/4
f 332/3/4 333/3/4 334/3/4
f 334/3/4 335/3/4 336/3/4
f 329/3/4 331/3/4 339/3/4
f 331/3/4 334/3/4 339/3/4
f 334/3/4 336/3/4 339/3/4
f 337/1/4 338/1/4 340/1/4
f 338/3/4 339/3/4 341/3/4
f 340/1/4 338/1/4 341/1/4
f 339/3/4 336/3/4 342/3/4
f 341/3/4 339/3/4 342/3/4
f 342/3/4 336/3/4 343/3/4
f 343/3/4 336/3/4 344/3/4
f 337/1/4 340/1/4 347/1/4
f 347/1/4 340/1/4 348/1/4
f 344/3/4 336/3/4 349/3/4
f 349/3/4 336/3/4 350/3/4
f 350/3/4 336/3/4 351/3/4
f 345/3/4 346/3/4 352/3/4
f 350/3/4 351/3/4 353/3/4
f 351/3/4 352/3/4 353/3/4
f 352/3/4 346/3/4 354/3/4
f 353/3/4 352/3/4 354/3/4
f 354/3/4 346/3/4 355/3/4
f 355/3/4 346/3/4 356/3/4
f 357/6/4 358/6/4 359/6/4
f 359/6/4 358/6/4 360/6/4
f 361/6/4 362/6/4 363/6/4
f 361/6/4 363/6/4 364/6/4
f 364/6/4 363/6/4 365/6/4
f 366/6/4 367/6/4 368/6/4
f 366/6/4 368/6/4 369/6/4
f 369/6/4 368/6/4 370/6/4
f 371/6/4 372/6/4 374/6/4
f 374/6/4 372/6/4 375/6/4
f 373/6/4 374/6/4 375/6/4
f 375/6/4 372/6/4 376/6/4
f 373/6/4 375/6/4 377/6/4
f 377/6/4 375/6/4 378/6/4
f 381/1/5 380/1/5 379/1/5
f 382/1/5 380/1/5 381/1/5
f 385/1/5 384/1/5 383/1/5
f 386/1/5 384/1/5 385/1/5
f 392/3/5 388/3/5 387/3/5
f 393/3/5 388/3/5 392/3/5
f 394/3/5 390/3/5 389/3/5
f 395/3/5 393/3/5 392/3/5
f 395/3/5 394/3/5 393/3/5
f 395/3/5 392/3/5 391/3/5
f 396/3/5 394/3/5 395/3/5
f 397/3/5 394/3/5 396/3/5
f 398/3/5 390/3/5 394/3/5
f 398/3/5 394/3/5 397/3/5
f 399/3/5 397/3/5 396/3/5
f 400/3/5 397/3/5 399/3/5
f 401/3/5 390/3/5 398/3/5
f 402/3/5 390/3/5 401/3/5
f 408/7/5 404/7/5 403/7/5
f 409/7/5 404/7/5 408/7/5
f 410/7/5 404/7/5 409/7/5
f 411/3/5 408/3/5 407/3/5
f 411/3/5 409/3/5 408/3/5
f 412/3/5 409/3/5 411/3/5
f 413/3/5 409/3/5 412/3/5
f 415/7/5 414/7/5 413/7/5
f 415/7/5 413/7/5 412/7/5
f 416/7/5 414/7/5 415/7/5
f 417/3/5 406/3/5 405/3/5
f 418/3/5 406/3/5 417/3/5
f 421/3/5 420/3/5 419/3/5
f 422/3/5 420/3/5 421/3/5
f 425/6/5 424/6/5 423/6/5
f 426/6/5 424/6/5 425/6/5
f 429/6/5 428/6/5 427/6/5
f 430/6/5 428/6/5 429/6/5
f 433/6/5 432/6/5 431/6/5
f 434/6/5 432/6/5 433/6/5
f 435/6/5 432/6/5 434/6/5
f 439/6/5 437/6/5 436/6/5
f 439/6/5 438/6/5 437/6/5
f 440/6/5 438/6/5 439/6/5
f 443/6/5 442/6/5 441/6/5
f 444/6/5 442/6/5 443/6/5
f 447/3/5 446/3/5 445/3/5
f 449/3/5 447/3/5 445/3/5
f 449/1/5 448/1/5 447/1/5
f 450/1/5 448/1/5 449/1/5
f 451/3/5 449/3/5 445/3/5
f 452/3/5 449/3/5 451/3/5
f 455/6/5 454/6/5 453/6/5
f 456/6/5 454/6/5 455/6/5
f 459/6/5 458/6/5 457/6/5
f 460/6/5 458/6/5 459/6/5
f 461/6/5 458/6/5 460/6/5
f 462/6/5 458/6/5 461/6/5
f 463/6/5 461/6/5 460/6/5
f 464/6/5 461/6/5 463/6/5
f 468/6/5 466/6/5 465/6/5
f 469/6/5 466/6/5 468/6/5
f 471/6/5 469/6/5 468/6/5
f 471/6/5 470/6/5 469/6/5
f 471/6/5 468/6/5 467/6/5
f 472/6/5 470/6/5 471/6/5
f 475/6/5 474/6/5 473/6/5
f 476/6/5 474/6/5 475/6/5
f 479/6/5 478/6/5 477/6/5
f 480/6/5 478/6/5 479/6/5
f 481/1/6 482/1/6 483/1/6
f 483/1/6 482/1/6 484/1/6
f 485/1/6 486/1/6 487/1/6
f 487/1/6 486/1/6 488/1/6
f 489/7/6 490/7/6 492/7/6
f 492/7/6 490/7/6 493/7/6
f 491/3/6 492/3/6 494/3/6
f 492/3/6 493/3/6 494/3/6
f 494/3/6 493/3/6 495/3/6
f 493/7/6 490/7/6 496/7/6
f 495/3/6 493/3/6 496/3/6
f 495/7/6 496/7/6 497/7/6
f 496/7/6 490/7/6 498/7/6
f 497/7/6 496/7/6 498/7/6
f 499/3/6 500/3/6 501/3/6
f 501/3/6 500/3/6 502/3/6
f 503/3/6 504/3/6 505/3/6
f 505/3/6 504/3/6 506/3/6
f 507/3/6 508/3/6 510/3/6
f 508/5/6 509/5/6 510/5/6
f 510/5/6 509/5/6 511/5/6
f 511/5/6 509/5/6 512/5/6
f 507/3/6 510/3/6 513/3/6
f 510/3/6 511/3/6 513/3/6
f 511/4/6 512/4/6 514/4/6
f 513/3/6 511/3/6 514/3/6
f 514/4/6 512/4/6 515/4/6
f 507/3/6 513/3/6 516/3/6
f 513/5/6 514/5/6 517/5/6
f 516/3/6 513/3/6 517/3/6
f 514/5/6 515/5/6 517/5/6
f 517/5/6 515/5/6 518/5/6
f 519/6/6 520/6/6 522/6/6
f 521/6/6 522/6/6 523/6/6
f 522/6/6 520/6/6 524/6/6
f 523/6/6 522/6/6 524/6/6
f 524/6/6 520/6/6 525/6/6
f 526/6/6 527/6/6 529/6/6
f 527/6/6 528/6/6 529/6/6
f 529/6/6 528/6/6 530/6/6
f 530/6/6 528/6/6 531/6/6
f 531/6/6 528/6/6 532/6/6
f 533/6/6 534/6/6 536/6/6
f 535/6/6 536/6/6 537/6/6
f 536/6/6 534/6/6 538/6/6
f 537/6/6 536/6/6 538/6/6
f 539/1/6 540/1/6 541/1/6
f 541/1/6 540/1/6 542/1/6
f 543/6/6 544/6/6 545/6/6
f 545/6/6 544/6/6 546/6/6
f 546/6/6 544/6/6 547/6/6
f 547/6/6 544/6/6 548/6/6
f 549/6/6 550/6/6 552/6/6
f 551/6/6 552/6/6 553/6/6
f 552/6/6 550/6/6 554/6/6
f 553/6/6 552/6/6 554/6/6
f 555/3/6 556/3/6 557/3/6
f 557/3/6 556/3/6 558/3/6
f 559/6/6 560/6/6 561/6/6
f 561/6/6 560/6/6 562/6/6
f 562/6/6 560/6/6 563/6/6
f 563/6/6 560/6/6 564/6/6
f 565/6/6 566/6/6 567/6/6
f 567/6/6 566/6/6 568/6/6
f 569/6/6 570/6/6 571/6/6
f 571/6/6 570/6/6 572/6/6
